<?xml version="1.0" encoding="utf-8"?>
<?xml-stylesheet type="text/xsl" href="rss1.xsl"?>
<rss version="2.0" xmlns:atom="http://www.w3.org/2005/Atom" xmlns:content="http://purl.org/rss/1.0/modules/content/" xmlns:dc="http://purl.org/dc/elements/1.1/" xmlns:media="http://search.yahoo.com/mrss/">
<channel>
 <title>Getty</title>
 <link>http://www.gettyimg.com/</link>
 <atom:link href="http://www.gettyimg.com/" rel="self" type="application/rss+xml" />

 
                <item>
                <title><![CDATA[【BLU-RAY &amp; BD RIP】Delete it]]></title>
                <link><![CDATA[https://sharemania.us/threads/delete-it.237128/]]></link>
                <description><![CDATA[<article>
<blockquote class="messageText SelectQuoteContainer ugc baseHtml">
Delete
<div class="messageTextEndMarker">&nbsp;</div>
</blockquote>
</article>]]></description>
                <author><![CDATA[Aituar]]></author>
                </item>

                
                <item>
                <title><![CDATA[【Cinema Center】SERIES - Shimmer and Shine (Season 1 - Season 3) 1080p DIRECTVGO (BR) WEB-DL MULTI AAC2.0 (ENG + BR-PT + LA-ES) H.264-DASH - 40.4GB MEGA]]></title>
                <link><![CDATA[https://sharemania.us/threads/shimmer-and-shine-season-1-season-3-1080p-directvgo-br-web-dl-multi-aac2-0-eng-br-pt-la-es-h-264-dash-40-4gb-mega.237129/]]></link>
                <description><![CDATA[<article>
<blockquote class="messageText SelectQuoteContainer ugc baseHtml">
<span style="font-size: 22px"><b>Shimmer.e.Shine.S01-S03.1080p.DGO.WEB-DL.AAC2.0.H.264-DASH.mkv (<b>English + </b>Brazilian Portuguese + Latin American Spanish)</b></span><br>
<br>
<span style="font-size: 18px">Original English Title: <b>Shimmer &amp; Shine | Shimmer and Shine</b><br>
<br>
Brazilian Portuguese Title:<b> <b>Shimmer e Shine</b></b><br>
<br>
Latin American Spanish Title:<b><b> <b>Shimmer y Shine</b></b></b><br>
<br>
Languages:<b> MULTI: <b>English | </b>Portuguese (Brazil) | Spanish (Latin America)</b><br>
<br>
</span>
<div class="ToggleTriggerAnchor bbCodeSpoilerContainer">
<button type="button" class="button bbCodeSpoilerButton ToggleTrigger Tooltip JsOnly" data-target="> .SpoilerTarget"><span>Spoiler: <span class="SpoilerTitle">MediaInfo</span></span></button>
<div class="SpoilerTarget bbCodeSpoilerText">General<br>
Unique ID : 2429994167076177135352793889768093377 (0x1D3FFF65F865B421DDFF26E44EA36C1)<br>
Complete name : Shimmer.e.Shine.S01E01.Minhas.gênias.secretas.Parte.1.1080p.DGO.WEB-DL.AAC2.0.H.264-DASH.mkv<br>
Format : Matroska<br>
Format version : Version 4<br>
File size : 657 MiB<br>
Duration : 23 min 33 s<br>
Overall bit rate : 3 901 kb/s<br>
Frame rate : 23.976 FPS<br>
Encoded date : 2024-02-04 06:38:17 UTC<br>
Writing application : mkvmerge v82.0 ('I'm The President') 64-bit<br>
Writing library : libebml v1.4.5 + libmatroska v1.7.1<br>
<br>
Video<br>
ID : 1<br>
Format : AVC<br>
Format/Info : Advanced Video Codec<br>
Format profile : High@L4<br>
Format settings : CABAC / 4 Ref Frames<br>
Format settings, CABAC : Yes<br>
Format settings, Reference frames : 4 frames<br>
Codec ID : V_MPEG4/ISO/AVC<br>
Duration : 23 min 32 s<br>
Bit rate : 3 512 kb/s<br>
Width : 1 920 pixels<br>
Height : 1 080 pixels<br>
Display aspect ratio : 16:9<br>
Frame rate mode : Constant<br>
Frame rate : 23.976 (24000/1001) FPS<br>
Color space : YUV<br>
Chroma subsampling : 4:2:0<br>
Bit depth : 8 bits<br>
Scan type : Progressive<br>
Bits/(Pixel*Frame) : 0.071<br>
Stream size : 591 MiB (90%)<br>
Default : Yes<br>
Forced : No<br>
<br>
Audio #1<br>
ID : 2<br>
Format : AAC LC<br>
Format/Info : Advanced Audio Codec Low Complexity<br>
Codec ID : A_AAC-2<br>
Duration : 23 min 32 s<br>
Bit rate : 129 kb/s<br>
Channel(s) : 2 channels<br>
Channel layout : L R<br>
Sampling rate : 48.0 kHz<br>
Frame rate : 46.875 FPS (1024 SPF)<br>
Compression mode : Lossy<br>
Stream size : 21.7 MiB (3%)<br>
Title : American English<br>
Language : English<br>
Default : Yes<br>
Forced : No<br>
<br>
Audio #2<br>
ID : 3<br>
Format : AAC LC<br>
Format/Info : Advanced Audio Codec Low Complexity<br>
Codec ID : A_AAC-2<br>
Duration : 23 min 33 s<br>
Bit rate : 129 kb/s<br>
Channel(s) : 2 channels<br>
Channel layout : L R<br>
Sampling rate : 48.0 kHz<br>
Frame rate : 46.875 FPS (1024 SPF)<br>
Compression mode : Lossy<br>
Stream size : 21.7 MiB (3%)<br>
Title : español latinoamericano<br>
Language : Spanish<br>
Default : No<br>
Forced : No<br>
<br>
Audio #3<br>
ID : 4<br>
Format : AAC LC<br>
Format/Info : Advanced Audio Codec Low Complexity<br>
Codec ID : A_AAC-2<br>
Duration : 23 min 33 s<br>
Bit rate : 129 kb/s<br>
Channel(s) : 2 channels<br>
Channel layout : L R<br>
Sampling rate : 48.0 kHz<br>
Frame rate : 46.875 FPS (1024 SPF)<br>
Compression mode : Lossy<br>
Stream size : 21.7 MiB (3%)<br>
Title : português<br>
Language : Portuguese<br>
Default : No<br>
Forced : No</div>
</div><br>
<img src="https://i.imgur.com/22ANr0F.jpeg" class="bbCodeImage LbImage" alt="[​IMG]" data-url="https://i.imgur.com/22ANr0F.jpeg" style=""><br>
<br>
<b><span style="font-size: 22px">Shimmer e Shine acompanha as aventuras das irmãs gênias, Shimmer e Shine, que, mesmo sem querer, acabam entrando em confusões sempre que tentam atender aos pedidos de sua melhor amiga humana Leah.</span></b><br>
<br>
<b><span style="font-size: 26px">Download on MEGA:</span><br>
<span style="font-size: 18px"><br>
Season 1<br>
<span style="font-size: 18px"><b>
<div class="bbCodeBlock bbCodeVfcHH HiddenContent">
<div class="attribution type">Hidden Content:</div>
<blockquote>You must reply before you can see the hidden data contained here.</blockquote>
</div></b><br>
<b>Season 2</b><br>
<b>
<div class="bbCodeBlock bbCodeVfcHH HiddenContent">
<div class="attribution type">Hidden Content:</div>
<blockquote>You must reply before you can see the hidden data contained here.</blockquote>
</div></b><br>
<b>Season 3</b><br>
<b>
<div class="bbCodeBlock bbCodeVfcHH HiddenContent">
<div class="attribution type">Hidden Content:</div>
<blockquote>You must reply before you can see the hidden data contained here.</blockquote>
</div></b></span><br>
</span></b>
<div class="messageTextEndMarker">&nbsp;</div>
</blockquote>
</article>]]></description>
                <author><![CDATA[dash]]></author>
                </item>

                </channel></rss>